<?xml version="1.0" standalone="no"?><!DOCTYPE svg PUBLIC "-//W3C//DTD SVG 1.1//EN" "http://www.w3.org/Graphics/SVG/1.1/DTD/svg11.dtd"><svg t="1660364078387" class="icon" viewBox="0 0 1024 1024" version="1.1" xmlns="http://www.w3.org/2000/svg" p-id="6697" xmlns:xlink="http://www.w3.org/1999/xlink" width="200" height="200"><defs><style type="text/css">@font-face { font-family: feedback-iconfont; src: url("//at.alicdn.com/t/font_1031158_u69w8yhxdu.woff2?t=1630033759944") format("woff2"), url("//at.alicdn.com/t/font_1031158_u69w8yhxdu.woff?t=1630033759944") format("woff"), url("//at.alicdn.com/t/font_1031158_u69w8yhxdu.ttf?t=1630033759944") format("truetype"); }
</style></defs><path d="M467.69 680.81a29.538 29.538 0 0 1-29.02-24l-66.78-349.76-53.28 167.5c-3.89 12.26-15.29 20.58-28.15 20.58H157.54c-16.33 0-29.54-13.23-29.54-29.54s13.21-29.54 29.54-29.54h111.32l82.07-257.91c4.1-12.87 16.01-21.56 29.91-20.52 13.5 0.81 24.72 10.66 27.26 23.94l75.69 396.49 92.8-129.65c6.49-9.1 17.45-13.8 28.64-11.99 11.02 1.75 20.13 9.58 23.54 20.22l37.76 118.67h199.93c16.33 0 29.54 13.23 29.54 29.54s-13.21 29.54-29.54 29.54H644.92c-12.87 0-24.26-8.32-28.15-20.58l-26.42-83.11-98.62 137.77a29.587 29.587 0 0 1-24.04 12.35zM866.46 866.47H157.54c-16.33 0-29.54-13.23-29.54-29.54s13.21-29.54 29.54-29.54h708.92c16.33 0 29.54 13.23 29.54 29.54s-13.21 29.54-29.54 29.54z" p-id="6698"></path></svg>